# xmcd
#
# Track frame offsets:
#	150
#	16044
#	32963
#	50808
#	62191
#	79580
#	94654
#	113147
#	122585
#	136790
#	154124
#	174780
#	194497
#	216749
#	226577
#	244926
#	257067
#	270907
#	280762
#	293704
#
# Disc length: 4168 seconds
#
# Revision: 1
# Processed by: cddbd v1.5.2PL0 Copyright (c) Steve Scherf et al.
# Submitted via: EasyCDDAExtractor 12.0.1.1
#
DISCID=14104614
DTITLE=Various Artist - The Ultimate Latin Album 8 CD2
DYEAR=2007
DGENRE=Latin
TTITLE0=Paul Carrack - RB 24 - Satisfy My Soul
TTITLE1=Bitter Sweet - RB 25 - Bitter Sweet Faith
TTITLE2=Chayanne - RB 24 - La Playa
TTITLE3=Linda Ronstadt - RB 23 - Quiereme Mucho
TTITLE4=Gian Marco - RB 24 - Mujer
TTITLE5=Gloria Estefan and Jose Feliciano - RB 23 - Tengo Que Decirte Algo
TTITLE6=Ana Gabriel - RB 23 - Eres Todo En Mi
TTITLE7=Harry Belafonte - RB 23 - A Day In The Life Of A Fool
TTITLE8=Shirley Bassey - RB 25 - So In Love
TTITLE9=Rosario - AmSqRb 32 - El Beso (Contigo Me Voy)
TTITLE10=Celia Cruz - SA 46 - Sin Clave No Hay Son
TTITLE11=Descargas - SA 47 - Salsa Total
TTITLE12=DLG - SA 50 - Acuyuye
TTITLE13=Elvis Presley - JV 36 - Stuck On You
TTITLE14=Powder Blues Band - JV 38 - Whole Lotta Lovin'
TTITLE15=The GoodFellas - JV 40 - Che Pupa
TTITLE16=Elvis Presley - JV 42 - Such A Night
TTITLE17=The GoodFellas - JV 43 - Choo Choo Boogie
TTITLE18=Ray Gelato - JV 43 - Them There Eyes
TTITLE19=Luis Cobos - PD 60 - Amparito Roca (Medley)
EXTD=
EXTT0=
EXTT1=
EXTT2=
EXTT3=
EXTT4=
EXTT5=
EXTT6=
EXTT7=
EXTT8=
EXTT9=
EXTT10=
EXTT11=
EXTT12=
EXTT13=
EXTT14=
EXTT15=
EXTT16=
EXTT17=
EXTT18=
EXTT19=
PLAYORDER=
